<?xml version="1.0"?>
<svg xmlns="http://www.w3.org/2000/svg" height="512px" viewBox="0 0 64 64" width="512px" class=""><g><g id="Setting-2" data-name="Setting"><path d="m43.22 41.94a5.984 5.984 0 0 0 -2.78-2.52l-2.74-1.22-.7 2.8-3-1-.82.82 1.33 5.97.49 2.21h9v-4.1a6.056 6.056 0 0 0 -.78-2.96z" fill="#bddbff" data-original="#BDDBFF" class="active-path" style="fill:#A88F8F00" data-old_color="#bddbff"/><path d="m37 15h-16l2 4-.85 1.7-.15.3 3 3h4.33a7.982 7.982 0 0 0 4.8-1.6l1.87-1.4.54 1.63a2.009 2.009 0 0 0 1.9 1.37h.56l2-2v-3a4 4 0 0 0 -4-4z" fill="#bddbff" data-original="#BDDBFF" class="active-path" style="fill:#A88F8F00" data-old_color="#bddbff"/><path d="m37.7 38.2-.7 2.8-3-1-1-2 2-1z" fill="#bddbff" data-original="#BDDBFF" class="active-path" style="fill:#A88F8F00" data-old_color="#bddbff"/><path d="m34.51 46.79-1.33-5.97-1.18 1.18-1.18-1.18-1.33 5.97-.49 2.21h6z" fill="#bddbff" data-original="#BDDBFF" class="active-path" style="fill:#A88F8F00" data-old_color="#bddbff"/><path d="m33 38 1 2-.82.82-1.18 1.18-1.18-1.18-.82-.82 1-2z" fill="#bddbff" data-original="#BDDBFF" class="active-path" style="fill:#A88F8F00" data-old_color="#bddbff"/><path d="m31 38-1 2-3 1-.7-2.8 2.7-1.2z" fill="#bddbff" data-original="#BDDBFF" class="active-path" style="fill:#A88F8F00" data-old_color="#bddbff"/><path d="m30 40-3 1-.7-2.8-2.74 1.22a5.984 5.984 0 0 0 -2.78 2.52 6.056 6.056 0 0 0 -.78 2.96v4.1h9l.49-2.21 1.33-5.97z" fill="#bddbff" data-original="#BDDBFF" class="active-path" style="fill:#A88F8F00" data-old_color="#bddbff"/><g fill="#3d9ae2"><path d="m28 26h2v2h-2z" data-original="#3D9AE2" class="" style="fill:#FFFFFF" data-old_color="#3D9AE2"/><path d="m34 26h2v2h-2z" data-original="#3D9AE2" class="" style="fill:#FFFFFF" data-old_color="#3D9AE2"/><path d="m61.217 27.024-6.065-1.348a23.826 23.826 0 0 0 -2.307-5.576l3.334-5.238a1 1 0 0 0 -.137-1.244l-5.657-5.66a1 1 0 0 0 -1.244-.136l-5.241 3.333a23.822 23.822 0 0 0 -5.578-2.308l-1.345-6.064a1 1 0 0 0 -.977-.783h-8a1 1 0 0 0 -.977.783l-1.347 6.064a23.822 23.822 0 0 0 -5.576 2.308l-5.241-3.333a1 1 0 0 0 -1.244.136l-5.657 5.657a1 1 0 0 0 -.137 1.244l3.334 5.241a23.826 23.826 0 0 0 -2.307 5.579l-6.065 1.345a1 1 0 0 0 -.783.976v8a1 1 0 0 0 .783.976l6.065 1.348a23.826 23.826 0 0 0 2.307 5.576l-3.334 5.241a1 1 0 0 0 .137 1.244l5.657 5.657a1 1 0 0 0 1.244.136l5.241-3.333a23.822 23.822 0 0 0 5.578 2.308l1.347 6.064a1 1 0 0 0 .975.783h8a1 1 0 0 0 .977-.783l1.347-6.064a23.822 23.822 0 0 0 5.576-2.308l5.239 3.333a1 1 0 0 0 1.244-.136l5.657-5.657a1 1 0 0 0 .137-1.244l-3.332-5.241a23.826 23.826 0 0 0 2.307-5.579l6.065-1.348a1 1 0 0 0 .783-.973v-8a1 1 0 0 0 -.783-.976zm-1.217 8.176-5.879 1.3a1 1 0 0 0 -.755.739 21.828 21.828 0 0 1 -2.549 6.161 1 1 0 0 0 .011 1.056l3.233 5.078-4.523 4.526-5.078-3.231a1 1 0 0 0 -1.057-.011 21.868 21.868 0 0 1 -6.16 2.549 1 1 0 0 0 -.739.754l-1.304 5.879h-6.4l-1.3-5.879a1 1 0 0 0 -.739-.754 21.868 21.868 0 0 1 -6.16-2.549 1 1 0 0 0 -1.057.011l-5.082 3.231-4.523-4.522 3.233-5.078a1 1 0 0 0 .011-1.056 21.828 21.828 0 0 1 -2.549-6.161 1 1 0 0 0 -.755-.739l-5.879-1.304v-6.4l5.879-1.3a1 1 0 0 0 .755-.739 21.828 21.828 0 0 1 2.549-6.161 1 1 0 0 0 -.011-1.056l-3.233-5.082 4.523-4.522 5.078 3.231a1 1 0 0 0 1.057.011 21.868 21.868 0 0 1 6.16-2.549 1 1 0 0 0 .739-.754l1.304-5.879h6.4l1.3 5.879a1 1 0 0 0 .739.754 21.868 21.868 0 0 1 6.16 2.549 1 1 0 0 0 1.057-.011l5.082-3.231 4.523 4.522-3.233 5.078a1 1 0 0 0 -.011 1.056 21.828 21.828 0 0 1 2.549 6.161 1 1 0 0 0 .755.739l5.879 1.304z" data-original="#3D9AE2" class="" style="fill:#FFFFFF" data-old_color="#3D9AE2"/><path d="m31 8h2v2h-2z" data-original="#3D9AE2" class="" style="fill:#FFFFFF" data-old_color="#3D9AE2"/><path d="m14.736 14.737h2v2h-2z" transform="matrix(.707 -.707 .707 .707 -6.518 15.733)" data-original="#3D9AE2" class="" style="fill:#FFFFFF" data-old_color="#3D9AE2"/><path d="m8 31h2v2h-2z" data-original="#3D9AE2" class="" style="fill:#FFFFFF" data-old_color="#3D9AE2"/><path d="m14.736 47.264h2v2h-2z" transform="matrix(.707 -.707 .707 .707 -29.518 25.263)" data-original="#3D9AE2" class="" style="fill:#FFFFFF" data-old_color="#3D9AE2"/><path d="m31 54h2v2h-2z" data-original="#3D9AE2" class="" style="fill:#FFFFFF" data-old_color="#3D9AE2"/><path d="m47.264 47.263h2v2h-2z" transform="matrix(.707 -.707 .707 .707 -19.991 48.252)" data-original="#3D9AE2" class="" style="fill:#FFFFFF" data-old_color="#3D9AE2"/><path d="m54 31h2v2h-2z" data-original="#3D9AE2" class="" style="fill:#FFFFFF" data-old_color="#3D9AE2"/><path d="m47.264 14.737h2v2h-2z" transform="matrix(.707 -.707 .707 .707 3.009 38.737)" data-original="#3D9AE2" class="" style="fill:#FFFFFF" data-old_color="#3D9AE2"/><path d="m48 32a15.872 15.872 0 0 0 -6-12.462v-.538a5.006 5.006 0 0 0 -5-5h-16a1 1 0 0 0 -.895 1.447l1.777 3.553-.553 1.105a15.917 15.917 0 0 0 -1.729 21.971 6.988 6.988 0 0 0 -.6 2.824v4.1a1 1 0 0 0 1 1h24a1 1 0 0 0 1-1v-4.1a6.988 6.988 0 0 0 -.6-2.824 15.917 15.917 0 0 0 3.6-10.076zm-2 0a13.934 13.934 0 0 1 -2.731 8.293 6.98 6.98 0 0 0 -2.422-1.787l-4.847-2.156v-1.443a7.973 7.973 0 0 0 3.75-4.941c.084.007.165.034.25.034a2.992 2.992 0 0 0 .376-5.962l1.331-1.331a.985.985 0 0 0 .255-.518 13.866 13.866 0 0 1 4.038 9.811zm-22-4a1 1 0 0 1 0-2zm2-3h3.333a9.05 9.05 0 0 0 5.4-1.8l.757-.567.106.316a2.994 2.994 0 0 0 2.404 2.016v3.035a4.762 4.762 0 0 1 -.035.614 6 6 0 0 1 -8.543 4.8 5.855 5.855 0 0 1 -1.665-1.17 6 6 0 0 1 -1.726-3.663 4.614 4.614 0 0 1 -.031-.581zm14 1a1 1 0 0 1 0 2zm-8 10a7.915 7.915 0 0 0 2-.262v.644l-1.236.618h-1.528l-1.236-.618v-.644a7.927 7.927 0 0 0 2 .262zm-.783 3.8.4-.8h.764l.4.8-.781.786zm-2.242-1.7.683.341-.367.735-1.583.528-.234-.937zm2.433 4.678a.919.919 0 0 0 1.184 0l1.161 5.222h-3.506zm3.3-3.6-.367-.735.683-.341 1.5.667-.234.937zm2.292-23.178a3 3 0 0 1 3 3v2.586l-1.414 1.414h-.145a1 1 0 0 1 -.949-.684l-.544-1.632a1 1 0 0 0 -.65-.639 1.016 1.016 0 0 0 -.298-.045 1 1 0 0 0 -.6.2l-1.866 1.4a7.045 7.045 0 0 1 -4.2 1.4h-3.92l-2.2-2.2.678-1.356a1 1 0 0 0 0-.894l-1.274-2.55zm-15.091 6.323 1.715 1.715a2.992 2.992 0 0 0 .376 5.962c.086 0 .167-.027.252-.035a8 8 0 0 0 2.092 3.693 7.839 7.839 0 0 0 1.656 1.235v1.457l-4.847 2.156a6.98 6.98 0 0 0 -2.422 1.787 13.943 13.943 0 0 1 1.178-17.97zm-.909 22.577a5 5 0 0 1 2.966-4.567l1.653-.735.411 1.645a1 1 0 0 0 .97.757 1.01 1.01 0 0 0 .316-.051l2.407-.8-1.523 6.851h-7.2zm22 3.1h-7.2l-1.525-6.853 2.407.8a1.01 1.01 0 0 0 .318.053 1 1 0 0 0 .97-.757l.411-1.645 1.653.735a5 5 0 0 1 2.966 4.567z" data-original="#3D9AE2" class="" style="fill:#FFFFFF" data-old_color="#3D9AE2"/></g></g></g> </svg>
